<svg xmlns="http://www.w3.org/2000/svg" viewBox="0 0 24 24" fill="none" aria-hidden="true">
  <path d="M12.9 5.1c.8-1.5 1.7-2.4 3-2.9" stroke="currentColor" stroke-width="1.8" stroke-linecap="round" stroke-linejoin="round"/>
  <path d="M10.7 6.2c1.2-1 3.2-1.4 5.1-.8 1.5.5 2.7 1.7 3.2 3.1-1.3.2-2.4-.1-3.2-.6-.3 1-1 1.9-2 2.4-1-.5-1.6-1.3-1.9-2.2-.8.3-1.8.4-3-.1.4-.7 1-1.3 1.8-1.8Z" stroke="currentColor" stroke-width="1.8" stroke-linecap="round" stroke-linejoin="round"/>
  <path d="M14.8 7.6c.5 2.8-.3 6.1-2.4 8.5-1.7 1.8-4 2.9-6.4 3 0-2.4.9-4.9 2.7-6.8C10.4 10.5 12.7 9.1 14.8 7.6Z" stroke="currentColor" stroke-width="1.8" stroke-linecap="round" stroke-linejoin="round"/>
</svg>
